<svg version="1.1" xmlns="http://www.w3.org/2000/svg" xmlns:xlink="http://www.w3.org/1999/xlink" width="371.58774" height="216.04595" viewBox="0,0,371.58774,216.04595"><g transform="translate(-53.8293,-49.30264)"><g data-paper-data="{&quot;isPaintingLayer&quot;:true}" stroke="none" stroke-linecap="butt" stroke-linejoin="miter" stroke-miterlimit="10" stroke-dasharray="" stroke-dashoffset="0" style="mix-blend-mode: normal"><path d="M410.79094,254.603c-30.05969,22.52284 -184.92466,2.64664 -184.92466,2.64664c0,0 -97.55654,-6.10217 -138.36894,-25.17729c-4.28917,-2.0047 -37.64257,-6.94487 -33.27462,-23.04387c1.91587,-7.06134 32.08677,-24.80844 39.76039,-31.00467c11.55878,-9.33339 12.26291,-26.4766 30.27671,-32.23529c23.60684,-7.54669 64.02814,-2.54332 67.62893,-5.24129c12.7525,-9.55508 47.44026,0.80593 69.95157,-0.52982c30.55145,-1.81282 51.3526,-11.87168 82.53306,1.36011c26.53661,11.26111 41.75056,10.42957 49.8996,25.04268c3.74808,6.72117 3.90518,35.33872 20.83182,45.79867c21.3757,13.20928 4.24156,35.97382 -4.31387,42.38414z" fill="#2fb5fa" fill-rule="nonzero" stroke-width="0"/><path d="M309.5,210.5c0,8.28427 -28.87763,15 -64.5,15c-35.62237,0 -64.5,-6.71573 -64.5,-15c0,-8.28427 28.87763,-15 64.5,-15c35.62237,0 64.5,6.71573 64.5,15z" fill="#1e739d" fill-rule="nonzero" stroke-width="0"/><path d="M284.60993,49.60234c33.91771,-3.89388 65.11263,30.82896 47.98543,65.01016c-4.87466,9.73469 -14.79966,21.31385 -25.77863,32.67342c-12.04759,12.47211 -25.38338,24.69537 -34.72283,33.96162l-25.47122,25.26628l-21.05035,-20.25986c-25.32483,-24.38796 -66.62041,-55.08517 -67.9818,-93.11633c-0.95151,-26.64231 20.06956,-43.71095 44.25258,-43.40354c21.60662,0.29277 30.69721,11.03753 44.76493,24.72465c11.72554,-12.22326 19.93781,-22.79235 38.00188,-24.85639z" fill="#fa3b30" fill-rule="evenodd" stroke-width="1"/></g></g></svg>